<?xml version="1.0" encoding="UTF-8"?>
<svg width="45px" height="45px" viewBox="0 0 45 45" version="1.1" xmlns="http://www.w3.org/2000/svg" xmlns:xlink="http://www.w3.org/1999/xlink">
    <!-- Generator: Sketch 46.1 (44463) - http://www.bohemiancoding.com/sketch -->
    <title>logo1</title>
    <desc>Created with Sketch.</desc>
    <defs></defs>
    <g id="Page-1" stroke="none" stroke-width="1" fill="none" fill-rule="evenodd">
        <g id="Artboard" transform="translate(-105.000000, -49.000000)">
            <g id="Group-5" transform="translate(105.000000, 49.000000)">
                <g id="logo1">
                    <path d="M6,9.22398291 L6,11 L42,11 C38.148677,4.42418218 30.9502747,0 22.7056692,0 C22.4987553,0 22.2925003,0.00278658699 22.0869407,0.00832383791 L22.0869407,0 L6,0 L6,9.22398291 Z" id="Combined-Shape" fill="#41DDF4"></path>
                    <path d="M6,43.2239829 L6,45 L42,45 C38.148677,38.4241822 30.9502747,34 22.7056692,34 C22.4987553,34 22.2925003,34.0027866 22.0869407,34.0083238 L22.0869407,34 L6,34 L6,43.2239829 Z" id="Combined-Shape-Copy-3" fill="#4197F4" transform="translate(24.000000, 39.500000) scale(1, -1) translate(-24.000000, -39.500000) "></path>
                    <path d="M44.2979026,17 L6,17 L6,28 L44.2979026,28 C44.7562333,26.2420904 45,24.3991476 45,22.5 C45,20.6008524 44.7562333,18.7579096 44.2979026,17 Z" id="Combined-Shape" fill="#41B6F4"></path>
                    <circle id="Oval-2-Copy-3" fill="#94F1FF" cx="5.5" cy="5.5" r="5.5"></circle>
                    <circle id="Oval-2-Copy" fill="#93DAFF" cx="5.5" cy="22.5" r="5.5"></circle>
                    <circle id="Oval-2-Copy-2" fill="#94C7FF" cx="5.5" cy="39.5" r="5.5"></circle>
                </g>
            </g>
        </g>
    </g>
</svg>